<svg width="24" height="24" viewBox="0 0 24 24" fill="none" xmlns="http://www.w3.org/2000/svg">
<path d="M9.07595 3.36C9.07595 3.36 6.01979 3.57024 4.02107 5.17488C4.01063 5.17907 4.00052 5.18404 3.99083 5.18976C3.64427 5.5104 3.38411 6.00816 3.06107 6.72C2.73851 7.43232 2.39723 8.3496 2.08619 9.37488C1.46507 11.4288 0.961068 13.9488 0.961068 16.32C0.959084 16.4039 0.979814 16.4869 1.02107 16.56C1.72187 17.7917 3.01211 18.5362 4.21595 19.0051C5.41979 19.4736 6.53147 19.6613 7.09595 19.68C7.25531 19.6858 7.40747 19.6128 7.50107 19.4851L8.67131 17.8651C9.61403 18.0883 10.7204 18.24 12.0011 18.24C13.2817 18.24 14.3881 18.0883 15.3313 17.8651L16.5011 19.4851C16.5947 19.6123 16.7468 19.6858 16.9062 19.68C17.4707 19.6608 18.5823 19.4736 19.7862 19.0051C20.99 18.5362 22.2798 17.7917 22.9811 16.56C23.0223 16.4869 23.0431 16.4039 23.0411 16.32C23.0411 13.9483 22.5371 11.4283 21.9159 9.37488C21.6049 8.3496 21.2631 7.43232 20.9411 6.72C20.6185 6.00768 20.3579 5.5104 20.0108 5.18976C20.0013 5.18423 19.9913 5.17941 19.9811 5.17536C17.9823 3.56928 14.9262 3.36 14.9262 3.36C14.8912 3.35624 14.856 3.35624 14.8211 3.36C14.7393 3.3713 14.6619 3.40347 14.5963 3.45342C14.5306 3.50336 14.4789 3.56938 14.4462 3.64512C14.4462 3.64512 14.283 4.0032 14.1759 4.51488C13.2404 4.36512 12.4527 4.32 12.0011 4.32C11.5494 4.32 10.7617 4.36512 9.82619 4.51488C9.71915 4.0032 9.55595 3.64512 9.55595 3.64512C9.51554 3.55356 9.44759 3.47689 9.36155 3.42578C9.27551 3.37467 9.17567 3.35168 9.07595 3.36ZM8.77595 4.39488C8.81147 4.49232 8.83595 4.58448 8.86619 4.69488C7.78427 4.9464 6.59915 5.35728 5.49083 6.04512C5.40557 6.08112 5.33249 6.14092 5.28031 6.21736C5.22813 6.2938 5.19907 6.38364 5.19659 6.47616C5.19275 6.66336 5.29979 6.83808 5.46875 6.92064C5.63915 7.00128 5.84171 6.9768 5.98619 6.85488C8.21003 5.47728 11.0391 5.28 12.0011 5.28C12.963 5.28 15.7921 5.4768 18.0159 6.85488C18.1604 6.9768 18.363 7.00128 18.5334 6.92064C18.7023 6.83808 18.8094 6.66384 18.8055 6.47616C18.803 6.38359 18.7739 6.2937 18.7216 6.21726C18.6694 6.14082 18.5962 6.08105 18.5108 6.04512C17.403 5.3568 16.2179 4.94592 15.1364 4.69488C15.1662 4.58448 15.1907 4.49232 15.2262 4.39488C15.7734 4.46208 17.9017 4.7496 19.3508 5.89488C19.4449 5.98128 19.7713 6.46128 20.0708 7.12512C20.3713 7.78896 20.6862 8.65296 20.9862 9.64512C21.5708 11.58 22.0436 13.967 22.0662 16.1549C21.5204 17.0381 20.4966 17.6942 19.4411 18.1051C18.4811 18.4781 17.5849 18.6451 17.1159 18.6898L16.3062 17.5954C16.6829 17.4737 17.0532 17.3334 17.4159 17.1749C18.6275 16.6421 19.2759 16.08 19.2759 16.08C19.3678 15.9936 19.4221 15.8747 19.4275 15.7487C19.4329 15.6227 19.3888 15.4996 19.3047 15.4057C19.2206 15.3117 19.1031 15.2544 18.9773 15.2458C18.8515 15.2373 18.7273 15.2783 18.6313 15.36C18.6313 15.36 18.1287 15.8194 17.0262 16.3051C16.6211 16.4827 16.13 16.6594 15.5708 16.8149C15.4417 16.8 15.3121 16.8374 15.2108 16.92C14.3166 17.1374 13.2534 17.28 12.0011 17.28C10.7391 17.28 9.67403 17.1245 8.77595 16.9051C8.67488 16.837 8.55159 16.81 8.43131 16.8298C7.93431 16.6898 7.44795 16.5144 6.97595 16.3051C5.87339 15.8194 5.37083 15.36 5.37083 15.36C5.31706 15.3104 5.25262 15.2737 5.18247 15.2529C5.11231 15.2321 5.03832 15.2277 4.96619 15.24C4.90505 15.1881 4.83188 15.1524 4.75337 15.1361C4.67486 15.1198 4.59352 15.1235 4.5168 15.1468C4.44007 15.17 4.3704 15.2122 4.31416 15.2693C4.25793 15.3265 4.21692 15.3968 4.19489 15.4739C4.17287 15.551 4.17052 15.6324 4.18808 15.7106C4.20563 15.7889 4.24252 15.8614 4.29537 15.9217C4.34823 15.982 4.41536 16.0281 4.49062 16.0558C4.56588 16.0834 4.64687 16.0917 4.72619 16.08C4.72619 16.08 5.37467 16.6426 6.58619 17.1749C6.91259 17.3174 7.28363 17.4619 7.69595 17.5949L6.88619 18.6902C6.41723 18.6451 5.52107 18.4781 4.56107 18.1046C3.50507 17.6942 2.48171 17.0381 1.93595 16.1549C1.95851 13.967 2.43131 11.58 3.01595 9.64512C3.31595 8.65296 3.63131 7.78896 3.93131 7.12512C4.23083 6.46128 4.55723 5.98128 4.65131 5.89488C6.10043 4.7496 8.22875 4.46256 8.77595 4.39488ZM8.88107 10.08C7.65707 10.08 6.72107 11.1917 6.72107 12.48C6.72107 13.7683 7.65707 14.88 8.88107 14.88C10.1051 14.88 11.0411 13.7683 11.0411 12.48C11.0411 11.1917 10.1051 10.08 8.88107 10.08ZM15.1211 10.08C13.8971 10.08 12.9611 11.1917 12.9611 12.48C12.9611 13.7683 13.8971 14.88 15.1211 14.88C16.3451 14.88 17.2811 13.7683 17.2811 12.48C17.2811 11.1917 16.3451 10.08 15.1211 10.08ZM8.88107 11.04C9.51275 11.04 10.0811 11.6477 10.0811 12.48C10.0811 13.3123 9.51275 13.92 8.88107 13.92C8.24939 13.92 7.68107 13.3123 7.68107 12.48C7.68107 11.6477 8.24939 11.04 8.88107 11.04ZM15.1211 11.04C15.7527 11.04 16.3211 11.6477 16.3211 12.48C16.3211 13.3123 15.7527 13.92 15.1211 13.92C14.4894 13.92 13.9211 13.3123 13.9211 12.48C13.9211 11.6477 14.4894 11.04 15.1211 11.04Z" fill="#6B6B6B" stroke="#6B6B6B" stroke-width="0.25"/>
</svg>
