<svg width="24" height="24" viewBox="0 0 24 24" fill="none" xmlns="http://www.w3.org/2000/svg">
<g clip-path="url(#clip0_43_14994)">
<path d="M12 3C16.982 3 21 7.018 21 12C21 16.982 16.982 21 12 21" stroke="#6B6B6B" stroke-width="1.5" stroke-linecap="round" stroke-linejoin="round"/>
<path d="M12 21C7.018 21 3 16.982 3 12C3 7.018 7.018 3 12 3" stroke="#6B6B6B" stroke-width="1.5" stroke-linecap="round" stroke-linejoin="round"/>
<path fill-rule="evenodd" clip-rule="evenodd" d="M10.1675 4.05999C7.2775 8.88499 7.2775 15.116 10.1675 19.941C11.0135 21.354 12.9865 21.354 13.8325 19.941C16.7225 15.116 16.7225 8.88499 13.8325 4.05999C12.9855 2.64699 11.0135 2.64699 10.1675 4.05999Z" stroke="#6B6B6B" stroke-width="1.5" stroke-linecap="round" stroke-linejoin="round"/>
<path d="M4.01172 7.85791C8.90372 9.36891 15.0997 9.36891 19.9907 7.85791" stroke="#6B6B6B" stroke-width="1.5" stroke-linecap="round" stroke-linejoin="round"/>
<path d="M19.9907 16.142C15.0987 14.631 8.90272 14.631 4.01172 16.142" stroke="#6B6B6B" stroke-width="1.5" stroke-linecap="round" stroke-linejoin="round"/>
</g>
<defs>
<clipPath id="clip0_43_14994">
<rect width="24" height="24" fill="white"/>
</clipPath>
</defs>
</svg>
