<svg width="24" height="24" viewBox="0 0 24 24" fill="none" xmlns="http://www.w3.org/2000/svg">
<path d="M11.6562 12.3945L7.65625 8.39453" stroke="#FFC400" stroke-width="1.5" stroke-linecap="round" stroke-linejoin="round"/>
<path d="M11.3945 4.6543L15.3945 8.6543" stroke="#FFC400" stroke-width="1.5" stroke-linecap="round" stroke-linejoin="round"/>
<path d="M3 21.001H13.586" stroke="#FFC400" stroke-width="1.5" stroke-linecap="round" stroke-linejoin="round"/>
<path d="M3.89844 21.001L4.44344 19.369C4.57586 18.9714 4.82984 18.6254 5.16951 18.38C5.50917 18.1345 5.91736 18.0019 6.33644 18.001H10.2464C10.6667 18.0005 11.0765 18.1323 11.4175 18.3779C11.7586 18.6235 12.0136 18.9702 12.1464 19.369L12.6874 21.001" stroke="#FFC400" stroke-width="1.5" stroke-linecap="round" stroke-linejoin="round"/>
<path d="M8.89279 7.30061L6.69279 9.05561C6.49165 9.21647 6.32664 9.41787 6.20847 9.64671C6.09029 9.87554 6.02162 10.1267 6.0069 10.3838C5.99219 10.6409 6.03177 10.8983 6.12306 11.1391C6.21435 11.3799 6.35532 11.5989 6.53679 11.7816L8.21279 13.4656C8.39276 13.6465 8.60887 13.7874 8.847 13.8791C9.08514 13.9708 9.33994 14.0112 9.59476 13.9977C9.84958 13.9842 10.0987 13.9171 10.3258 13.8008C10.5529 13.6845 10.7529 13.5215 10.9128 13.3226L12.6888 11.1166C13.109 10.5942 13.5852 10.1193 14.1088 9.70061L16.3088 7.94561C16.5099 7.78475 16.6749 7.58335 16.7931 7.35451C16.9113 7.12567 16.98 6.87452 16.9947 6.61739C17.0094 6.36027 16.9698 6.10292 16.8785 5.8621C16.7872 5.62127 16.6463 5.40236 16.4648 5.21961L14.7918 3.53661C14.6118 3.3557 14.3957 3.2148 14.1576 3.12311C13.9194 3.03141 13.6646 2.991 13.4098 3.00449C13.155 3.01799 12.9059 3.08509 12.6788 3.20143C12.4517 3.31776 12.2516 3.4807 12.0918 3.67961L10.3138 5.88561C9.89348 6.40799 9.41695 6.88252 8.89279 7.30061V7.30061Z" stroke="#FFC400" stroke-width="1.5" stroke-linecap="round" stroke-linejoin="round"/>
<path d="M14.3765 9.4873L20.3005 14.5003C20.5074 14.6761 20.676 14.8924 20.796 15.1359C20.916 15.3794 20.9848 15.6449 20.9981 15.9161C21.0115 16.1872 20.9691 16.4582 20.8736 16.7123C20.7781 16.9664 20.6315 17.1983 20.4429 17.3935C20.2543 17.5888 20.0277 17.7433 19.777 17.8475C19.5264 17.9517 19.257 18.0035 18.9856 17.9995C18.7141 17.9956 18.4464 17.936 18.1989 17.8245C17.9514 17.713 17.7293 17.552 17.5465 17.3513L12.3125 11.5873" stroke="#FFC400" stroke-width="1.5" stroke-linecap="round" stroke-linejoin="round"/>
</svg>
