<svg width="187" height="45" viewBox="0 0 187 45" fill="none" xmlns="http://www.w3.org/2000/svg">
<g clip-path="url(#clip0_3_445)">
<path d="M0.246094 9.16574V18.0658L3.4511 21.2708L6.65611 24.4758V15.5634V6.66337H15.4945H24.3453L21.1403 3.45836L17.9353 0.253351H9.09685H0.246094V9.16574Z" fill="#5E5E5E"/>
<path d="M83.4531 17.9425V35.6317H87.0896H90.726V17.9425V0.253334H87.0896H83.4531V17.9425Z" fill="#5E5E5E"/>
<path d="M26.0098 16.0936V24.2294L29.1162 27.3357C30.8296 29.0492 32.2719 30.4545 32.3212 30.4545C32.3828 30.4545 32.4198 26.8303 32.4198 22.405V14.3678L29.2148 11.1628L26.0098 7.95777V16.0936Z" fill="#5E5E5E"/>
<path d="M67.6755 10.078C66.0114 10.3615 64.187 11.1751 62.905 12.2105L62.1407 12.8269L62.1037 11.6928L62.0667 10.5464L58.4673 10.5094L54.8555 10.4848V27.7425V45.0002H58.4919H62.1284V39.2066V33.4129L62.8926 34.0292C63.7925 34.7565 65.5676 35.6564 66.6894 35.9646C67.3304 36.1372 67.9467 36.1865 69.7095 36.1741C71.7557 36.1741 72.0146 36.1372 73.0131 35.8413C75.0594 35.2126 76.4893 34.3251 78.0425 32.7226C80.4955 30.1586 81.568 27.5083 81.6913 23.613C81.7899 20.7778 81.3831 18.7685 80.2613 16.5496C79.0533 14.1459 76.8714 11.964 74.443 10.719C74.1472 10.571 73.8883 10.4601 73.8636 10.4724C73.8513 10.4848 73.4692 10.3861 73.0254 10.2382C72.3228 10.0287 71.9037 9.99167 70.0916 10.004C68.9329 10.0163 67.8481 10.0533 67.6755 10.078ZM69.9067 17.2153C71.3859 17.659 72.3844 18.3863 73.2103 19.619C73.9869 20.7901 74.2458 21.7886 74.1965 23.465C74.1472 24.7964 74.1225 24.9073 73.6664 25.8195C72.594 28.0014 70.6217 29.2217 68.1686 29.2217C66.4428 29.2217 65.0745 28.6793 63.9158 27.5453C62.6831 26.3249 62.1284 24.9443 62.1284 23.0459C62.1284 20.2354 63.8541 17.9179 66.4798 17.2029C67.3673 16.9687 69.0808 16.9687 69.9067 17.2153Z" fill="#5E5E5E"/>
<path d="M131.431 10.2382C129.742 10.7066 128.62 11.3229 127.498 12.3831L126.968 12.8761V11.6804V10.4847H123.332H119.695V23.0582V35.6317H123.332H126.956L126.993 28.0137C127.03 20.4202 127.03 20.4079 127.313 19.7176C127.708 18.7314 128.423 17.9672 129.409 17.4864C130.186 17.1043 130.296 17.0796 131.591 17.0796C132.824 17.0796 133.008 17.1043 133.649 17.4248C134.512 17.8439 135.252 18.6575 135.622 19.5943C135.905 20.2846 135.905 20.297 135.942 27.952L135.979 35.6317H139.603H143.24V28.1862C143.24 21.0612 143.252 20.7038 143.486 19.9395C143.819 18.8547 144.645 17.9425 145.73 17.4371C146.432 17.1166 146.63 17.0796 147.862 17.0796C149.095 17.0796 149.28 17.1043 149.835 17.4125C150.673 17.8439 151.339 18.5465 151.733 19.3601L152.054 20.0381L152.091 27.8287L152.128 35.6317H155.752H159.388V26.7563C159.388 19.1259 159.363 17.733 159.191 16.9194C158.636 14.2321 157.009 12.0749 154.642 10.9162C153.138 10.1765 152.46 10.0533 149.896 10.0533C147.727 10.0656 147.567 10.0779 146.63 10.4108C144.768 11.0518 143.314 11.9763 142.192 13.209L141.736 13.7267L141.415 13.3076C140.466 12.0502 138.925 10.9778 137.261 10.4108C136.386 10.1026 136.066 10.0656 134.303 10.0286C132.614 10.004 132.195 10.0286 131.431 10.2382Z" fill="#5E5E5E"/>
<path d="M171.406 10.078C169.582 10.3369 166.771 11.6189 165.218 12.9009C162.95 14.7746 161.384 17.3509 160.792 20.2231C160.472 21.7023 160.472 26.2756 160.768 26.4605C160.829 26.4975 160.842 26.5838 160.792 26.6454C160.755 26.7071 160.78 26.8303 160.842 26.9166C160.903 27.0029 160.94 27.1632 160.928 27.2741C160.903 27.385 160.965 27.5453 161.051 27.6193C161.15 27.6932 161.199 27.8288 161.162 27.9274C161.125 28.0137 161.162 28.1247 161.224 28.174C161.298 28.2109 161.322 28.3219 161.285 28.3959C161.236 28.4821 161.236 28.5068 161.298 28.4575C161.409 28.3465 161.754 28.9506 161.668 29.0985C161.631 29.1478 161.692 29.2587 161.791 29.345C161.889 29.4313 161.939 29.5423 161.914 29.6039C161.877 29.6532 161.939 29.7518 162.05 29.8135C162.161 29.8751 162.259 29.9737 162.259 30.0353C162.272 30.097 162.333 30.134 162.383 30.1093C162.444 30.097 162.457 30.134 162.407 30.1956C162.309 30.3682 164.762 32.7719 165.957 33.6718C167.597 34.9168 169.742 35.7674 172.121 36.1372C173.329 36.3221 176.879 36.2111 178.025 35.9523C179.911 35.5208 181.674 34.7689 183.227 33.7334C184.263 33.0308 185.902 31.5885 185.878 31.379C185.878 31.305 184.781 30.3189 183.462 29.1848L181.046 27.1139L180.479 27.6562C178.95 29.1478 177.002 29.8874 174.673 29.8874C172.047 29.8751 169.89 28.6177 168.805 26.4482L168.373 25.5853L177.68 25.5483L186.999 25.5237V23.0213C186.999 20.7655 186.975 20.4203 186.691 19.3972C185.656 15.5388 182.821 12.3461 179.073 10.8669C177.483 10.2259 175.967 9.9917 173.723 10.004C172.651 10.0164 171.615 10.0533 171.406 10.078ZM176.189 16.7345C177.323 17.2769 178.371 18.3001 178.925 19.3972C179.16 19.8656 179.357 20.334 179.357 20.4203C179.357 20.5682 178.42 20.5929 173.871 20.5929C170.223 20.5929 168.386 20.5559 168.386 20.4696C168.386 20.3957 168.546 19.9765 168.743 19.5451C169.162 18.6329 170.149 17.5235 170.974 17.0427C172.035 16.414 172.651 16.2661 174.056 16.3154C175.215 16.3401 175.437 16.3894 176.189 16.7345Z" fill="#5E5E5E"/>
<path d="M93.3145 18.9903C93.3145 27.2001 93.3268 27.5329 93.5733 28.4821C94.0664 30.4051 94.9909 32.0076 96.2359 33.117C97.7768 34.4853 98.5657 34.9537 100.39 35.5824C101.882 36.1001 102.917 36.248 104.939 36.248C108.612 36.248 111.164 35.4838 113.383 33.7087C115.047 32.3897 116.218 30.5776 116.773 28.4821C117.044 27.4466 117.044 27.3357 117.044 18.9903V10.5463L113.444 10.5094L109.833 10.4847V17.4741C109.82 21.3324 109.771 24.8456 109.722 25.3017C109.512 26.9165 108.686 28.1246 107.318 28.7902C106.319 29.271 104.779 29.3573 103.57 28.9875C102.486 28.6546 101.512 27.8287 100.994 26.7809L100.649 26.0783L100.587 18.3123L100.526 10.5463L96.9263 10.5094L93.3145 10.4847V18.9903Z" fill="#5E5E5E"/>
<path d="M35.0084 25.8688V34.7689H26.1946C21.3501 34.7689 17.3809 34.8058 17.3809 34.8675C17.3809 34.9168 18.7861 36.3467 20.4996 38.0478L23.606 41.1542L31.6185 41.2282L39.631 41.3145L41.2952 42.9663L42.9593 44.6181L44.1057 44.7907C45.4124 44.9879 45.3261 45.0742 45.0549 43.7429L44.8577 42.843L43.1442 41.1172L41.4184 39.3915V31.3789V23.3664L38.2134 20.1614L35.0084 16.9564V25.8688Z" fill="#5E5E5E"/>
<path d="M11.4761 28.9752L14.6072 32.1678L22.6567 32.1802C27.0697 32.1802 30.6939 32.1432 30.6939 32.0816C30.6939 32.0323 29.2886 30.59 27.5752 28.8766L24.4688 25.7702H16.4069H8.35742L11.4761 28.9752Z" fill="#5E5E5E"/>
</g>
<defs>
<clipPath id="clip0_3_445">
<rect width="187" height="44.7469" fill="white" transform="translate(0 0.253418)"/>
</clipPath>
</defs>
</svg>
