<svg width="258" height="45" viewBox="0 0 258 45" fill="none" xmlns="http://www.w3.org/2000/svg">
<path fill-rule="evenodd" clip-rule="evenodd" d="M19.8365 0.626831C19.8678 0.626831 19.8574 0.710276 19.8156 0.814582C19.7738 0.908458 19.6379 1.08578 19.5125 1.20052C19.3871 1.31525 19.0736 1.66989 18.8332 1.98281C18.5824 2.29573 18.2166 2.91114 18.0076 3.33879C17.7986 3.76645 17.6314 4.17324 17.6314 4.22539C17.6314 4.27755 17.5687 4.4653 17.4851 4.64262C17.4014 4.81994 17.2551 5.3519 17.1715 5.84214C17.0775 6.33238 16.9625 7.33372 16.8998 8.08472C16.8476 8.83573 16.7953 10.9427 16.7953 12.7785C16.7953 14.6143 16.8476 16.8673 16.8998 17.7852C16.9625 18.7031 17.0775 20.1321 17.1611 20.9665C17.2447 21.801 17.4014 22.9692 17.5164 23.5742C17.6314 24.1792 17.8508 25.3265 17.9971 26.1297C18.1539 26.9328 18.4779 28.3827 18.7287 29.3632C18.9795 30.3437 19.4185 31.7727 19.7006 32.5445C19.9932 33.3164 20.4426 34.3907 20.7039 34.9227C20.9652 35.4442 21.1846 35.8928 21.1846 35.9032C21.1846 35.924 21.4355 36.3621 21.7385 36.8732C22.0521 37.3843 22.5119 38.1145 22.7836 38.49C23.0449 38.8655 23.6406 39.5643 24.1004 40.0546C24.5707 40.5448 24.9469 40.9725 24.9469 41.0142C24.9469 41.0663 24.8842 41.0663 24.8111 41.0246C24.7484 40.9933 24.3826 40.7221 24.0168 40.4301C23.651 40.138 23.0658 39.5956 22.7209 39.2201C22.3865 38.8446 21.7699 38.0936 21.3519 37.5512C20.9443 37.0088 20.359 36.1639 20.0455 35.6737C19.732 35.1835 19.0527 34.057 18.5406 33.1704C18.0285 32.2838 17.1506 30.6566 16.6072 29.5718C16.0533 28.487 15.374 27.0267 15.0918 26.3383C14.8201 25.6499 14.3812 24.4712 14.1199 23.7306C13.8691 22.9901 13.4406 21.6028 13.1793 20.6536C12.918 19.7044 12.615 18.5049 12.5 17.9938C12.3955 17.4827 12.2283 16.3979 12.1342 15.5948C12.0088 14.5413 11.9775 13.6651 12.0193 12.4656C12.0506 11.5477 12.1447 10.3899 12.2387 9.87879C12.3328 9.37812 12.5 8.67927 12.6254 8.3142C12.7404 7.95956 13.0121 7.292 13.2316 6.83305C13.4406 6.3741 13.8482 5.65439 14.1303 5.22673C14.423 4.79908 15.0291 4.06893 15.4889 3.60999C15.9488 3.14061 16.7326 2.49391 17.2133 2.1497C17.7045 1.81592 18.4779 1.33611 18.9377 1.08578C19.3976 0.835444 19.8051 0.626831 19.8365 0.626831ZM10.598 2.86941C10.6189 2.90071 10.4726 3.1719 10.274 3.46396C10.0859 3.76645 9.78281 4.37142 9.61559 4.79908C9.43793 5.22673 9.22891 5.863 9.15576 6.20721C9.05125 6.6453 9.00945 7.54233 9.0199 9.17994C9.0199 10.4733 9.0826 12.0171 9.14531 12.622C9.21846 13.227 9.46928 14.6769 9.68875 15.8555C9.91867 17.0342 10.3681 18.9117 10.6816 20.0278C10.9951 21.1439 11.4758 22.6772 11.7371 23.4177C12.0088 24.1583 12.3015 24.9406 12.406 25.1388C12.5105 25.337 12.7195 25.8272 12.8762 26.234C13.0435 26.6408 13.566 27.7151 14.0572 28.633C14.5379 29.5509 15.1754 30.6983 15.468 31.1885C15.7607 31.6788 16.2101 32.4194 16.4713 32.8366C16.7326 33.2538 17.2029 33.9839 17.5164 34.4533C17.8299 34.9227 18.4256 35.7572 18.8332 36.2995C19.2512 36.8419 20.056 37.8016 20.6307 38.4378C21.1951 39.0741 22.0625 39.9398 22.5537 40.3675C23.0344 40.7951 23.8078 41.4314 24.2676 41.7756C24.7275 42.1198 25.25 42.4849 25.4172 42.5892C25.5949 42.6935 26.0861 42.9543 26.5146 43.1733C26.943 43.3924 27.6432 43.7053 28.0613 43.8722C28.4793 44.0391 28.7824 44.206 28.7406 44.2372C28.6883 44.279 28.4898 44.3624 28.2912 44.4354C28.0926 44.498 27.3611 44.5815 26.6713 44.6128C25.9502 44.644 25.0828 44.6232 24.6334 44.5502C24.2049 44.4876 23.1703 44.2477 22.3342 44.0182C21.4982 43.7992 20.3068 43.3924 19.6693 43.1316C19.0318 42.8604 18.0285 42.4015 17.4223 42.099C16.8162 41.7965 15.9488 41.348 15.4889 41.0976C15.0291 40.8369 14.2035 40.3466 13.6601 40.0024C13.1166 39.6582 12.4687 39.2305 12.2178 39.0637C11.967 38.8968 11.2668 38.3857 10.6502 37.9267C10.0336 37.4782 9.0617 36.7272 8.48691 36.2474C7.91211 35.778 7.13875 35.0896 6.75207 34.7245C6.37584 34.3595 5.7906 33.7336 5.44572 33.3268C5.10084 32.92 4.49469 32.1273 4.08711 31.5536C3.68998 30.9799 3.15699 30.1872 2.92707 29.7804C2.68671 29.3736 2.22687 28.5079 1.91335 27.8507C1.58937 27.1936 1.15044 26.1088 0.920518 25.4517C0.701051 24.7946 0.439781 23.8871 0.345723 23.4386C0.251666 23.0005 0.126257 21.947 0.0635519 21.1021C0.000847011 20.2468 -0.0200548 18.9951 0.0217485 18.3067C0.0635517 17.6183 0.199412 16.544 0.335273 15.9077C0.460683 15.2714 0.732404 14.3118 1.27585 12.7785L1.33855 13.7694C1.38035 14.3118 1.48486 15.115 1.58937 15.5426C1.68343 15.9703 1.89244 16.7734 2.05966 17.3158C2.21642 17.8582 2.59265 18.9117 2.87482 19.6627C3.16744 20.4137 3.58548 21.4672 3.81539 22.0096C4.04531 22.552 4.43199 23.3969 4.67236 23.8871C4.91273 24.3773 5.37256 25.2431 5.69654 25.8168C6.01006 26.3905 6.61621 27.3709 7.03424 28.0072C7.44183 28.6435 8.07932 29.5509 8.4451 30.0412C8.81088 30.5314 9.28117 31.1364 9.47973 31.3867C9.6783 31.6371 10.3472 32.4089 10.9533 33.1078C11.5594 33.7962 12.8553 35.1626 13.8273 36.1327C14.7992 37.1131 16.1055 38.3335 16.743 38.855C17.3805 39.3766 18.3629 40.138 18.9377 40.5344C19.5125 40.9412 20.3799 41.5044 20.8711 41.7861C21.3623 42.0781 22.1566 42.5058 22.6478 42.7352C23.1389 42.9647 23.8391 43.2672 24.2154 43.3819C24.5916 43.5071 24.9887 43.601 25.1037 43.5801C25.2396 43.5488 24.9574 43.3715 24.2676 43.0377C23.6928 42.7665 22.8254 42.2972 22.3342 42.0051C21.843 41.713 21.1428 41.2019 20.7666 40.8786C20.3904 40.5552 19.7111 39.919 19.2512 39.4705C18.7914 39.0115 17.9658 38.1562 17.4223 37.5617C16.8789 36.9567 16.3146 36.31 16.1683 36.1222C16.0219 35.9449 15.3844 35.1626 14.7574 34.4012C14.1199 33.6397 13.3674 32.7114 13.0853 32.3463C12.7926 31.9813 12.3955 31.4597 12.1969 31.1885C11.9984 30.9069 11.5385 30.2706 11.1728 29.7595C10.8174 29.2589 10.3053 28.5183 10.0441 28.1115C9.78281 27.7047 9.42748 27.1415 9.24981 26.8598C9.07215 26.5678 8.60186 25.7229 8.20473 24.9823C7.8076 24.2418 7.33732 23.2717 7.15965 22.844C6.98199 22.4164 6.79387 22.02 6.75207 21.9574C6.71027 21.8949 6.42809 21.1751 6.12502 20.3407C5.8324 19.5063 5.51888 18.5466 5.43527 18.2024C5.35166 17.8582 5.2158 17.0863 5.14265 16.4814C5.05904 15.8764 4.98588 14.9585 4.98588 14.4474C4.98588 13.9363 5.03814 13.1123 5.09039 12.622C5.1531 12.1318 5.26806 11.3808 5.35166 10.9531C5.43527 10.5255 5.73834 9.60759 6.01006 8.91917C6.29224 8.23075 6.79387 7.23984 7.1283 6.72874C7.45228 6.20721 8.06887 5.39362 8.47645 4.91382C8.88404 4.43401 9.52153 3.76645 9.88731 3.43267C10.2531 3.09889 10.5771 2.84855 10.598 2.86941ZM26.41 3.34922C26.6295 3.34922 26.5877 3.40138 26.1488 3.67257C25.8562 3.84989 25.2709 4.35056 24.832 4.78865C24.4035 5.22673 23.8914 5.81085 23.6928 6.10291C23.5047 6.38453 23.0867 7.09381 22.7732 7.6675C22.4596 8.24118 21.9894 9.27381 21.7385 9.96223C21.4877 10.6507 21.0906 11.8919 20.8607 12.7263C20.6307 13.5608 20.3381 14.7812 20.1918 15.4383C20.056 16.0954 19.8469 17.2741 19.7215 18.046C19.6066 18.8178 19.4289 20.1321 19.3348 20.9665C19.1781 22.2599 19.1467 22.4164 19.0736 22.0618C19.0318 21.8323 18.9273 20.6849 18.8437 19.5063C18.7601 18.3276 18.7183 16.5961 18.7392 15.6469C18.7601 14.6977 18.8228 13.4565 18.8855 12.8828C18.9482 12.3091 19.1154 11.2974 19.2512 10.6402C19.4185 9.86836 19.6588 9.10692 19.941 8.50195C20.1709 7.99085 20.5367 7.32329 20.7457 7.04166C20.9547 6.7496 21.3414 6.29066 21.6027 6.01946C21.8639 5.73783 22.376 5.27889 22.7523 5.00769C23.1285 4.72606 23.881 4.27755 24.4348 3.99592C24.9887 3.72473 25.6053 3.47439 25.7934 3.43267C25.992 3.39095 26.2637 3.35965 26.41 3.34922ZM37.4879 12.935H42.9432C47.3953 12.935 48.5867 12.9663 49.3496 13.0914C49.9139 13.1957 50.5828 13.3939 51.0217 13.6025C51.4293 13.7903 52.0041 14.1449 52.2967 14.3744C52.5998 14.6143 53.0283 15.0837 53.2477 15.407C53.4672 15.7408 53.7285 16.2102 53.8225 16.4501C53.9166 16.7004 54.0524 17.2845 54.1047 17.7539C54.1779 18.338 54.1779 18.8908 54.1047 19.4541C54.042 19.9548 53.8852 20.5389 53.7076 20.9144C53.5404 21.2586 53.1537 21.801 52.8401 22.1243C52.4326 22.5416 52.025 22.8232 51.3875 23.1257C50.8963 23.3656 50.1334 23.6263 49.684 23.7202C49.2451 23.8141 48.7121 23.8871 48.5135 23.8871C48.2627 23.8871 48.1477 23.9393 48.1477 24.0436C48.1477 24.127 48.3254 24.4712 48.5553 24.7946C48.7748 25.1284 49.057 25.5873 49.1824 25.8168C49.3078 26.0462 49.5168 26.38 49.6422 26.5678C49.7676 26.7555 50.1334 27.3292 50.4469 27.8507C50.7604 28.3723 51.2098 29.1024 51.4397 29.4675C51.6697 29.8326 52.0877 30.521 52.3803 30.9799C52.6625 31.4493 53.1223 32.1795 53.394 32.6071C53.6762 33.0348 53.8957 33.3998 53.8957 33.4311C53.8957 33.4624 53.2686 33.4833 51.1262 33.4833L50.8649 33.0869C50.7186 32.8783 50.4574 32.4402 50.2797 32.1273C50.102 31.8144 49.6945 31.126 49.36 30.6149C49.036 30.0933 48.6912 29.5405 48.5867 29.3736C48.4926 29.2172 48.1268 28.6226 47.7924 28.0698C47.458 27.517 46.9877 26.7555 46.7473 26.3696C46.507 25.9941 46.1098 25.337 45.8486 24.9197C45.5873 24.5025 45.3156 24.0957 45.2424 24.0227C45.1483 23.9184 44.5631 23.8871 42.6611 23.8871C40.8008 23.8871 40.1842 23.9184 40.132 24.0123C40.0902 24.0853 40.0693 26.2444 40.1006 33.4833H37.4879V12.935ZM147.848 12.935H153.199C156.146 12.935 158.916 12.9871 159.344 13.0393C159.773 13.1019 160.463 13.2374 160.86 13.3626C161.267 13.4878 161.905 13.7903 162.323 14.0615C162.72 14.3327 163.243 14.7812 163.472 15.0732C163.713 15.3549 164.005 15.8973 164.141 16.2728C164.288 16.69 164.403 17.3158 164.434 17.8895C164.476 18.5571 164.444 19.0473 164.319 19.6106C164.225 20.0382 164.037 20.6223 163.901 20.9144C163.765 21.196 163.42 21.6967 163.138 22.0096C162.762 22.4373 162.365 22.7189 161.633 23.0944C161.09 23.376 160.348 23.6681 159.971 23.7619C159.449 23.8767 158.226 23.9288 150.304 24.0436L150.252 33.4833H147.848V12.935ZM253.078 12.935H255.701L255.722 21.1439C255.753 29.2693 255.753 29.3632 255.973 29.7804C256.098 30.0099 256.401 30.3541 256.652 30.5418C256.903 30.7296 257.268 30.9173 257.467 30.9591C257.666 31.0008 257.833 31.0738 257.854 31.1364C257.864 31.199 257.906 31.7414 258 33.4833H257.666C257.477 33.4833 257.018 33.3894 256.641 33.2642C256.265 33.1391 255.826 32.9722 255.649 32.8783C255.471 32.7949 255.105 32.5028 254.823 32.242C254.551 31.9813 254.144 31.4597 253.924 31.0842C253.705 30.7087 253.433 30.1246 253.339 29.7804C253.172 29.2067 253.151 28.4349 253.119 21.0396L253.078 12.935ZM105.136 14.3952H106.244L106.296 17.7852L109.118 17.8895L109.17 19.8192H106.244V29.0503L106.484 29.5196C106.63 29.7908 106.954 30.1559 107.247 30.375C107.529 30.594 107.926 30.813 108.125 30.8756C108.334 30.9278 108.627 30.9799 109.066 30.9799V32.1273C109.066 32.7636 109.086 33.3164 109.097 33.3581C109.107 33.3998 108.888 33.452 108.595 33.4624C108.313 33.4833 107.791 33.4207 107.446 33.3372C107.101 33.2434 106.568 33.0452 106.244 32.8783C105.93 32.7114 105.45 32.3568 105.167 32.0751C104.896 31.7935 104.53 31.2824 104.363 30.9278C104.185 30.5836 103.955 29.9264 103.84 29.4675C103.652 28.7061 103.631 28.2993 103.631 19.8192H102.168V17.8374H102.617C102.879 17.8374 103.213 17.7539 103.422 17.6183C103.631 17.5036 103.903 17.3054 104.039 17.1802C104.175 17.0551 104.415 16.69 104.582 16.3562C104.749 16.0224 104.948 15.4487 105.011 15.0732L105.136 14.3952ZM199.496 14.3952H200.73L200.771 17.8895L203.541 17.9417V19.8192H200.719V24.4921C200.719 29.1337 200.719 29.165 200.959 29.624C201.095 29.8951 201.388 30.2289 201.66 30.4271C201.921 30.6149 202.412 30.8339 202.757 30.9278C203.102 31.0217 203.415 31.126 203.436 31.1573C203.468 31.1885 203.509 31.7622 203.572 33.6397L202.747 33.5563C202.234 33.4937 201.628 33.3372 201.137 33.1391C200.709 32.9513 200.186 32.6697 199.967 32.4924C199.758 32.3255 199.371 31.8874 199.11 31.5328C198.848 31.1781 198.535 30.5836 198.399 30.2289C198.18 29.6031 198.169 29.384 198.054 19.8713L196.539 19.8192V17.9938L197.04 17.9208C197.312 17.8686 197.72 17.7226 197.95 17.587C198.18 17.4618 198.514 17.1698 198.681 16.9403C198.848 16.7213 199.078 16.3145 199.183 16.0433C199.277 15.7721 199.392 15.2923 199.434 14.9689L199.496 14.3952ZM40.0379 15.5113C39.9961 15.553 39.9543 16.9195 39.9647 18.5675C39.9752 20.8518 40.0065 21.5715 40.1111 21.6758C40.2156 21.7801 41.0621 21.801 43.957 21.7801C47.0713 21.7488 47.8029 21.7071 48.5031 21.5507C48.9629 21.4463 49.5795 21.2586 49.8617 21.1334C50.1543 21.0083 50.6037 20.6953 50.8649 20.445C51.1994 20.1112 51.377 19.84 51.4815 19.4541C51.5652 19.1516 51.5965 18.7031 51.5651 18.3589C51.5338 18.046 51.4084 17.587 51.2934 17.3471C51.1576 17.0863 50.844 16.7317 50.5201 16.4918C50.217 16.2728 49.684 15.9911 49.3391 15.8764C48.9943 15.7617 48.3463 15.6156 47.9074 15.553C47.458 15.4905 45.535 15.4383 43.6121 15.4383C41.6996 15.4383 40.0902 15.4696 40.0379 15.5113ZM150.242 18.4632C150.242 20.9665 150.263 21.3942 150.398 21.4359C150.482 21.4672 152.029 21.4881 153.826 21.4881C155.624 21.4881 157.526 21.4463 158.059 21.3838C158.592 21.3316 159.292 21.1856 159.627 21.0708C159.951 20.9561 160.473 20.6953 160.776 20.4972C161.205 20.2155 161.382 20.0069 161.633 19.4854C161.853 19.0369 161.957 18.6822 161.947 18.338C161.947 18.0668 161.873 17.6705 161.79 17.4514C161.696 17.2324 161.476 16.8986 161.288 16.7108C161.111 16.5231 160.745 16.2519 160.484 16.1267C160.222 15.9911 159.647 15.8034 159.208 15.7199C158.54 15.5739 157.651 15.5426 154.318 15.5426H150.242V18.4632ZM61.9846 17.7956C62.6221 17.8165 63.4373 17.9104 63.8135 18.0042C64.1897 18.0877 64.6809 18.2337 64.9108 18.3276C65.1408 18.411 65.6528 18.7031 66.0395 18.9743C66.4367 19.2351 66.9592 19.7149 67.21 20.0278C67.4504 20.3511 67.7744 20.8414 67.9207 21.123C68.0565 21.4151 68.2969 21.9992 68.4432 22.4268C68.6313 22.9692 68.7463 23.6055 68.8194 24.4608C68.8717 25.2222 68.8821 26.1818 68.8194 26.8911C68.7672 27.5691 68.6313 28.341 68.5059 28.7165C68.391 29.0711 68.1192 29.7178 67.9102 30.1455C67.6385 30.74 67.3459 31.126 66.7815 31.6892C66.259 32.2003 65.7992 32.5445 65.3602 32.7427C64.9944 32.9096 64.3047 33.1495 63.8135 33.2851C63.1028 33.4729 62.6639 33.525 61.6188 33.525C60.5319 33.5146 60.1557 33.4729 59.3719 33.2434C58.8598 33.0973 58.2432 32.8992 58.0133 32.8053C57.7834 32.701 57.3444 32.4298 57.0309 32.2003C56.7279 31.9604 56.2576 31.4806 55.9858 31.1364C55.7141 30.7922 55.4006 30.2811 55.2752 29.989C55.1602 29.7074 54.9617 29.1754 54.8363 28.8208C54.7213 28.4662 54.575 27.8507 54.5123 27.4648C54.46 27.0789 54.4182 26.2444 54.4182 25.6082C54.4182 24.9823 54.46 24.1374 54.5227 23.7306C54.575 23.3343 54.7004 22.771 54.7944 22.479C54.8781 22.1973 55.0975 21.6341 55.2752 21.2273C55.4529 20.8309 55.8082 20.2573 56.0695 19.9443C56.3412 19.6418 56.7801 19.2351 57.0518 19.0369C57.3235 18.8387 57.7207 18.5884 57.9401 18.484C58.1492 18.3693 58.5881 18.2024 58.9016 18.1085C59.2151 18.0147 59.7795 17.8999 60.1557 17.8478C60.5319 17.7956 61.3576 17.7748 61.9846 17.7956ZM78.4969 17.7956C79.1762 17.8165 79.9914 17.9312 80.4825 18.0564C80.9424 18.1711 81.6008 18.4215 81.9457 18.5988C82.3114 18.7865 82.8862 19.2455 83.3043 19.6731C83.8059 20.1738 84.1612 20.6536 84.4225 21.1856C84.642 21.6132 84.8928 22.2391 84.9764 22.5833C85.0704 22.9275 85.1959 23.7515 85.2586 24.4086C85.3631 25.337 85.3631 25.9002 85.2586 26.8598C85.1959 27.5587 85.0391 28.4453 84.9241 28.8417C84.8092 29.2484 84.6524 29.697 84.5688 29.8326C84.4957 29.9786 84.318 30.3124 84.1821 30.5627C84.0463 30.8235 83.6491 31.3137 83.2938 31.6579C82.9489 32.0021 82.3846 32.4402 82.0397 32.6175C81.7053 32.8053 80.9528 33.0869 80.378 33.2434C79.5315 33.4729 79.1239 33.525 78.1834 33.525C77.5563 33.525 76.9188 33.4937 76.7725 33.4624C76.6262 33.4311 76.3754 33.3685 76.1977 33.3372C76.0305 33.2955 75.5811 33.1599 75.2049 33.0452C74.8287 32.9305 74.2225 32.6384 73.8567 32.3985C73.491 32.169 72.9789 31.7414 72.7176 31.4493C72.4668 31.1677 72.0801 30.6044 71.8502 30.1976C71.6307 29.7908 71.3485 29.0607 71.2127 28.5287C71.0246 27.7464 70.9828 27.2979 70.9828 25.7125C70.9723 24.3148 71.0246 23.6159 71.1604 22.9484C71.2754 22.4164 71.5157 21.7175 71.7875 21.1856C72.0278 20.7058 72.4459 20.0695 72.7071 19.7774C72.9684 19.4854 73.491 19.0577 73.8567 18.8178C74.2225 18.5779 74.86 18.2859 75.2571 18.1607C75.6647 18.0355 76.2918 17.8999 76.668 17.8478C77.0442 17.7956 77.8698 17.7748 78.4969 17.7956ZM94.0686 17.8061C94.6434 17.8374 95.469 17.9312 95.8975 18.0042C96.326 18.0877 96.8903 18.2337 97.1516 18.338C97.4129 18.4319 97.8831 18.6822 98.1967 18.8908C98.5102 19.0995 98.97 19.4958 99.2208 19.7566C99.4612 20.0278 99.7538 20.4137 99.8584 20.6328C99.9733 20.8518 100.182 21.3316 100.329 21.6967C100.485 22.0722 100.611 22.4268 100.611 22.479C100.611 22.5416 100.12 22.7397 99.5344 22.9171C98.9387 23.1048 98.3743 23.2821 98.2803 23.3134C98.134 23.3551 98.0608 23.2613 97.9354 22.8753C97.8413 22.6041 97.5696 22.1035 97.3292 21.7697C97.0471 21.3733 96.6709 21.0291 96.2633 20.7684C95.9184 20.5493 95.469 20.3303 95.2704 20.2677C95.0719 20.2051 94.6225 20.1321 94.2776 20.0904C93.9327 20.0591 93.2639 20.0799 92.7936 20.1321C92.2606 20.2051 91.7276 20.3407 91.4036 20.4972C91.1215 20.6432 90.7661 20.8831 90.6198 21.0187C90.4735 21.1647 90.3168 21.4046 90.2541 21.5402C90.2018 21.6862 90.1495 21.9887 90.1495 22.2182C90.1495 22.5311 90.2332 22.7293 90.4422 22.9692C90.5989 23.1465 90.9334 23.3969 91.1946 23.5325C91.4559 23.6576 92.2815 23.9393 93.0235 24.1479C93.776 24.3565 94.4971 24.5755 94.6434 24.6381C94.7897 24.7007 95.5213 24.9197 96.2633 25.1388C97.0157 25.3578 97.9772 25.702 98.4057 25.9107C98.8342 26.1088 99.3985 26.453 99.6493 26.6721C99.9002 26.8911 100.235 27.2875 100.381 27.5378C100.527 27.7986 100.684 28.2262 100.726 28.4766C100.778 28.7478 100.768 29.238 100.705 29.6031C100.653 29.9577 100.465 30.521 100.287 30.8548C100.12 31.1885 99.9211 31.5223 99.8479 31.6162C99.7747 31.6996 99.4508 31.9708 99.1372 32.2212C98.8237 32.4611 98.3012 32.7636 97.9877 32.8783C97.6741 32.993 97.0157 33.1808 96.5245 33.2851C96.0334 33.3894 95.26 33.5041 94.8002 33.5459C94.2045 33.598 93.7028 33.5667 93.0235 33.4416C92.5114 33.3477 91.759 33.1704 91.3514 33.0556C90.9543 32.9409 90.4526 32.7531 90.2541 32.6488C90.0555 32.555 89.5852 32.242 89.2194 31.9604C88.8536 31.6788 88.2893 31.1051 87.9653 30.667C87.6413 30.2394 87.2756 29.6657 87.1711 29.3945C87.0317 29.0607 86.9969 28.859 87.0666 28.7895C87.1293 28.7373 87.7145 28.4974 88.3729 28.2784C89.0313 28.0489 89.5852 27.8716 89.5956 27.882C89.5956 27.9029 89.7315 28.1637 89.8987 28.4766C90.0555 28.7999 90.3795 29.2693 90.6198 29.5196C90.902 29.8117 91.3932 30.1663 91.9366 30.4375C92.6159 30.7713 93.0026 30.8965 93.5983 30.9695C94.0268 31.0217 94.7374 31.0217 95.1659 30.9799C95.5944 30.9382 96.1901 30.8026 96.4723 30.6774C96.7649 30.5523 97.0889 30.375 97.1934 30.2706C97.2979 30.1768 97.4756 29.9056 97.5801 29.6761C97.695 29.4466 97.7786 29.1859 97.7786 29.0816C97.7786 28.9773 97.695 28.7269 97.5801 28.5079C97.4756 28.2888 97.277 28.0176 97.1411 27.8925C97.0053 27.7777 96.6813 27.5587 96.42 27.4127C96.1588 27.2666 95.5317 27.0163 95.0092 26.8703C94.4971 26.7242 93.9327 26.5573 93.7551 26.4948C93.5879 26.4322 92.595 26.1506 91.5604 25.8585C90.4735 25.556 89.3971 25.1909 89 24.9823C88.5924 24.7633 88.1639 24.4399 87.934 24.1583C87.7145 23.8975 87.4637 23.4803 87.3696 23.2404C87.2756 22.9796 87.2024 22.4477 87.2024 21.9574C87.2024 21.2899 87.2442 21.0187 87.4532 20.5493C87.5995 20.2364 87.8713 19.7983 88.0698 19.5793C88.2684 19.3498 88.7282 18.9951 89.1045 18.7761C89.4807 18.5466 90.16 18.2754 90.6198 18.1503C91.0797 18.0355 91.8112 17.8999 92.2397 17.8478C92.6682 17.7956 93.4938 17.7748 94.0686 17.8061ZM118.367 17.8061C118.91 17.8374 119.715 17.9312 120.143 18.0147C120.572 18.0877 121.168 18.2754 121.45 18.411C121.742 18.5466 122.213 18.8283 122.495 19.0369C122.787 19.2455 123.205 19.6314 123.425 19.9026C123.655 20.1738 124.01 20.7684 124.23 21.2273C124.439 21.6862 124.669 22.3225 124.731 22.6354C124.794 22.9588 124.857 23.4907 124.857 23.835C124.857 24.1792 124.825 24.4921 124.773 24.5234C124.731 24.5651 123.561 24.7216 122.181 24.8676C120.802 25.024 119.088 25.2431 118.367 25.3578C117.646 25.4726 116.277 25.6603 115.315 25.7751C114.354 25.8898 113.518 26.0045 113.455 26.0254C113.403 26.0567 113.35 26.3174 113.35 26.5991C113.35 26.8911 113.465 27.4857 113.612 27.9342C113.758 28.414 114.03 28.9668 114.26 29.2797C114.479 29.5718 114.803 29.9264 114.97 30.0725C115.148 30.2185 115.524 30.448 115.806 30.594C116.099 30.74 116.632 30.9173 117.008 30.9904C117.437 31.0738 117.991 31.0947 118.503 31.0529C118.942 31.0112 119.485 30.9173 119.704 30.8235C119.913 30.7296 120.3 30.5314 120.561 30.3645C120.823 30.1976 121.241 29.7908 121.492 29.4571C121.753 29.1233 122.025 28.6435 122.098 28.4036C122.171 28.1637 122.275 27.9655 122.317 27.9655C122.359 27.9655 122.84 28.1011 123.383 28.2784C123.927 28.4453 124.439 28.6226 124.522 28.6643C124.616 28.7165 124.637 28.8417 124.595 29.0294C124.564 29.1859 124.365 29.6761 124.146 30.1246C123.864 30.7087 123.55 31.1364 123.028 31.6788C122.505 32.2003 122.087 32.5237 121.606 32.7427C121.23 32.92 120.53 33.1704 120.039 33.2851C119.447 33.4381 118.82 33.5146 118.158 33.5146C117.416 33.5146 116.914 33.452 116.12 33.2434C115.545 33.0869 114.793 32.8262 114.448 32.6697C114.103 32.5028 113.58 32.1795 113.288 31.9604C113.005 31.7414 112.619 31.3972 112.452 31.1885C112.274 30.9904 111.992 30.6149 111.814 30.3541C111.636 30.1038 111.427 29.7283 111.344 29.5196C111.26 29.3215 111.062 28.6643 110.915 28.0594C110.685 27.1728 110.644 26.7242 110.633 25.6395C110.633 24.6485 110.696 24.0749 110.853 23.3969C110.978 22.8962 111.187 22.1765 111.344 21.801C111.49 21.4359 111.783 20.8935 111.992 20.6015C112.201 20.3198 112.629 19.8609 112.943 19.5793C113.256 19.2976 113.789 18.9221 114.134 18.7344C114.479 18.5466 115.022 18.3067 115.336 18.2024C115.65 18.0981 116.245 17.9625 116.642 17.8895C117.102 17.7956 117.75 17.7748 118.367 17.8061ZM135.402 17.7539C135.715 17.7435 136.279 17.8061 136.656 17.8791C137.032 17.9625 137.534 18.1294 137.784 18.2441C138.025 18.3693 138.39 18.6196 138.6 18.8074C138.809 18.9951 139.132 19.4019 139.321 19.7149C139.519 20.0382 139.749 20.6015 139.843 20.9665C139.937 21.342 140.021 22.0305 140.052 23.3134L138.798 23.7515C138.108 23.9914 137.492 24.1896 137.419 24.2C137.324 24.2 137.293 24.0644 137.325 23.7098C137.356 23.4386 137.325 22.9275 137.272 22.5833C137.21 22.2391 137.095 21.8323 137.011 21.6758C136.938 21.5194 136.708 21.2377 136.52 21.05C136.332 20.8622 135.872 20.6015 135.506 20.4554C134.931 20.2468 134.701 20.2155 133.938 20.2573C133.207 20.299 132.914 20.372 132.266 20.6745C131.692 20.9457 131.347 21.1856 130.981 21.6028C130.699 21.9157 130.375 22.3434 130.27 22.5624C130.166 22.7815 129.998 23.2195 129.915 23.5533C129.789 24.0436 129.758 25.0032 129.758 33.5876H126.936V17.8374H128.4C129.507 17.8374 129.863 17.8791 129.863 17.9729C129.863 18.046 129.789 18.411 129.706 18.7761C129.622 19.1516 129.434 20.0174 129.288 20.7058C129.142 21.3942 129.027 21.9992 129.027 22.0409C129.027 22.0826 129.267 22.1139 130.072 22.1139L130.228 21.3629C130.333 20.8518 130.511 20.4033 130.782 19.9756C131.002 19.6314 131.399 19.1829 131.65 18.9743C131.901 18.7761 132.298 18.5049 132.528 18.3902C132.758 18.2754 133.228 18.1085 133.573 18.0147C133.918 17.9312 134.346 17.8374 134.513 17.8165C134.691 17.7852 135.088 17.7643 135.402 17.7539ZM188.753 17.8582C189.411 17.9104 190.112 18.0355 190.634 18.2024C191.104 18.3485 191.773 18.6718 192.149 18.9326C192.526 19.1829 193.048 19.6418 193.32 19.9443C193.581 20.2468 193.947 20.8309 194.135 21.2273C194.313 21.6341 194.511 22.0409 194.564 22.1452C194.616 22.2495 194.731 22.6459 194.825 23.0318C194.919 23.4177 195.013 24.3669 195.044 25.1388C195.086 26.1714 195.055 26.8494 194.929 27.6421C194.835 28.2471 194.679 28.9042 194.595 29.1024C194.501 29.311 194.271 29.8117 194.072 30.2289C193.822 30.7713 193.519 31.1885 192.986 31.7101C192.505 32.2003 192.035 32.5445 191.606 32.7531C191.24 32.92 190.436 33.1808 189.798 33.3372C188.816 33.5772 188.492 33.6084 187.551 33.5667C186.893 33.5354 186.119 33.4207 185.618 33.2851C185.158 33.1599 184.552 32.9513 184.259 32.8262C183.977 32.701 183.475 32.3881 183.151 32.1273C182.817 31.877 182.347 31.3763 182.096 31.0321C181.845 30.6879 181.511 30.1038 181.364 29.7283C181.207 29.3632 180.978 28.633 180.852 28.1115C180.654 27.3396 180.612 26.912 180.612 25.6082C180.622 24.2626 180.664 23.8975 180.904 22.9484C181.061 22.3538 181.312 21.6028 181.458 21.2795C181.605 20.9665 181.918 20.4554 182.169 20.1321C182.409 19.8192 182.796 19.4124 183.015 19.2351C183.245 19.0577 183.684 18.7657 183.998 18.5988C184.311 18.4215 184.876 18.192 185.252 18.0981C185.628 18.0042 186.328 17.8999 186.82 17.8582C187.311 17.8165 188.178 17.8269 188.753 17.8582ZM243.463 17.7539C243.494 17.7435 244.006 17.7852 244.613 17.8478C245.219 17.9104 246.065 18.0773 246.494 18.2129C246.922 18.3485 247.581 18.6718 247.957 18.9221C248.333 19.1725 248.856 19.6314 249.117 19.9339C249.378 20.2468 249.692 20.664 249.807 20.8622C249.922 21.0708 250.162 21.6341 250.34 22.1139C250.517 22.6041 250.716 23.2821 250.778 23.6263C250.841 23.9706 250.883 24.8884 250.883 25.6603C250.883 26.4426 250.831 27.3814 250.778 27.7464C250.716 28.1219 250.507 28.8521 250.308 29.3632C250.12 29.8847 249.754 30.5836 249.503 30.9278C249.253 31.272 248.814 31.7622 248.532 32.0126C248.239 32.2733 247.716 32.6071 247.361 32.774C246.995 32.9409 246.337 33.1808 245.898 33.306C245.219 33.5041 244.842 33.5354 243.62 33.5354C242.345 33.525 242.042 33.4937 241.247 33.2434C240.746 33.0973 240.129 32.8679 239.889 32.7427C239.638 32.6175 239.23 32.3568 238.969 32.169C238.708 31.9708 238.29 31.5432 238.029 31.2094C237.767 30.8861 237.412 30.2706 237.224 29.8326C237.046 29.4049 236.816 28.7686 236.712 28.4244C236.544 27.9029 236.513 27.4544 236.524 25.6082C236.524 23.5012 236.534 23.3969 236.827 22.5311C236.983 22.0513 237.245 21.3942 237.391 21.0708C237.548 20.7579 237.767 20.3929 237.882 20.2573C237.987 20.1112 238.206 19.8609 238.352 19.6836C238.509 19.4958 238.927 19.162 239.293 18.9117C239.659 18.6718 240.223 18.3902 240.537 18.2754C240.85 18.1711 241.446 18.0251 241.843 17.9625C242.251 17.8895 242.763 17.8269 242.993 17.8061C243.223 17.7852 243.432 17.7643 243.463 17.7539ZM165.918 17.8374H167.381C168.834 17.8374 168.844 17.8478 168.844 18.0773C168.844 18.2024 168.771 18.6196 168.677 18.9847C168.593 19.3602 168.416 20.2051 168.28 20.8622C168.144 21.5298 168.05 22.1035 168.071 22.1452C168.092 22.1869 168.29 22.2286 168.51 22.2286C168.719 22.2286 168.949 22.1765 169.011 22.093C169.074 22.02 169.168 21.7488 169.199 21.4881C169.241 21.2377 169.367 20.8101 169.482 20.5493C169.607 20.299 169.868 19.8818 170.077 19.621C170.297 19.3707 170.704 18.9847 170.987 18.7761C171.279 18.5675 171.812 18.2859 172.188 18.1503C172.701 17.9729 173.192 17.8999 174.122 17.8686C175.188 17.8165 175.491 17.8478 176.107 18.0251C176.567 18.1607 177.038 18.4006 177.362 18.6509C177.654 18.87 178.062 19.3289 178.271 19.6731C178.48 20.0174 178.731 20.5493 178.825 20.8622C178.919 21.1856 179.023 21.8636 179.128 23.3134L177.821 23.7619C177.111 24.0018 176.505 24.2105 176.473 24.2105C176.442 24.2105 176.4 23.7932 176.358 23.2926C176.327 22.7397 176.212 22.1973 176.097 21.9053C175.982 21.655 175.721 21.2795 175.522 21.0708C175.292 20.8309 174.927 20.6328 174.467 20.4763C174.08 20.3511 173.516 20.2364 173.213 20.2364C172.91 20.2364 172.282 20.3616 171.823 20.5076C171.363 20.6536 170.778 20.9248 170.516 21.1126C170.255 21.3003 169.847 21.7593 169.597 22.1243C169.346 22.4894 169.074 23.0318 168.97 23.3134C168.823 23.7724 168.792 24.5025 168.74 33.5876H165.918V17.8374ZM212.006 17.8791C213.542 17.9104 213.824 17.9417 214.566 18.192C215.026 18.3485 215.706 18.6718 216.071 18.9117C216.437 19.1516 216.96 19.6106 217.242 19.9235C217.514 20.2468 217.827 20.6849 217.942 20.9144C218.067 21.1439 218.287 21.6132 218.433 21.9574C218.58 22.3017 218.778 22.9901 218.862 23.4699C218.945 23.9601 219.008 24.951 219.008 25.6603C219.008 26.38 218.945 27.3709 218.862 27.8507C218.768 28.3827 218.527 29.165 218.256 29.7804C217.869 30.6879 217.702 30.9382 217.022 31.6266C216.448 32.2107 216.061 32.5132 215.559 32.7323C215.183 32.9096 214.525 33.1599 214.096 33.2851C213.469 33.4729 213.051 33.525 212.006 33.5354C211.285 33.5354 210.512 33.5041 210.282 33.4728C210.052 33.4311 209.487 33.2747 209.028 33.1391C208.557 32.9826 207.899 32.6801 207.523 32.4298C207.157 32.1795 206.624 31.7205 206.342 31.3972C206.059 31.0842 205.673 30.5001 205.474 30.0933C205.276 29.697 205.004 28.8729 204.858 28.268C204.628 27.3501 204.586 26.9328 204.586 25.6082C204.586 24.3043 204.628 23.8871 204.837 23.0527C204.983 22.5103 205.192 21.8114 205.317 21.4881C205.443 21.1751 205.788 20.591 206.091 20.1947C206.436 19.7253 206.885 19.2976 207.355 18.9743C207.763 18.6927 208.327 18.3797 208.609 18.2859C208.902 18.192 209.393 18.0564 209.707 17.9834C210.083 17.8999 210.867 17.8582 212.006 17.8791ZM228.466 17.8791C229.772 17.9104 230.169 17.9625 230.817 18.1711C231.246 18.3172 231.883 18.6196 232.228 18.8491C232.573 19.089 233.085 19.5167 233.357 19.8087C233.639 20.1217 234.047 20.7579 234.318 21.3107C234.58 21.8427 234.799 22.3225 234.799 22.3747C234.799 22.4373 234.287 22.6667 233.671 22.8858C233.054 23.1152 232.49 23.3134 232.416 23.3343C232.343 23.3552 232.281 23.2926 232.281 23.1883C232.281 23.084 232.176 22.7919 232.061 22.5311C231.946 22.2808 231.674 21.8636 231.465 21.6132C231.256 21.3629 230.891 21.05 230.661 20.9144C230.431 20.7788 229.94 20.5702 229.563 20.445C228.999 20.2468 228.727 20.226 227.891 20.2573C227.013 20.299 226.804 20.3511 226.094 20.6953C225.602 20.9248 225.111 21.2482 224.86 21.5194C224.631 21.7593 224.327 22.1452 224.192 22.3747C224.056 22.6041 223.836 23.1778 223.711 23.6263C223.585 24.0853 223.46 24.8467 223.429 25.2952C223.387 25.8794 223.429 26.4113 223.554 27.0163C223.659 27.5065 223.836 28.1637 223.951 28.4766C224.077 28.7999 224.39 29.311 224.662 29.624C225.017 30.0516 225.362 30.3124 225.968 30.6149C226.742 31.0112 226.867 31.0425 227.839 31.0738C228.591 31.1051 229.051 31.0634 229.459 30.9486C229.772 30.8548 230.295 30.6149 230.608 30.4062C230.922 30.1976 231.361 29.7908 231.58 29.4884C231.8 29.1963 232.051 28.7373 232.145 28.4766C232.239 28.2262 232.322 28.0072 232.322 27.9863C232.333 27.9759 232.782 28.1011 233.326 28.268C233.869 28.4349 234.423 28.6017 234.778 28.7373L234.423 29.5509C234.224 29.9995 233.932 30.5627 233.785 30.8026C233.629 31.0425 233.232 31.5119 232.897 31.8457C232.49 32.242 232.019 32.5654 231.528 32.7949C231.11 32.993 230.483 33.2434 230.138 33.3477C229.689 33.4833 229.166 33.5354 228.257 33.5354C227.254 33.5354 226.836 33.4833 226.167 33.2955C225.707 33.1599 225.049 32.9305 224.704 32.7844C224.359 32.6384 223.784 32.3046 223.439 32.0439C223.084 31.7727 222.54 31.2511 222.248 30.8756C221.945 30.5106 221.589 29.9682 221.464 29.6761C221.339 29.3945 221.109 28.6643 220.962 28.0594C220.743 27.1936 220.691 26.7138 220.68 25.7125C220.68 24.7633 220.743 24.1896 220.941 23.3134C221.088 22.6563 221.359 21.8636 221.568 21.4359C221.767 21.0396 222.164 20.4554 222.436 20.1321C222.718 19.8192 223.272 19.3498 223.669 19.0786C224.066 18.8074 224.631 18.4945 224.913 18.3797C225.205 18.265 225.77 18.0981 226.167 18.0147C226.71 17.8895 227.306 17.8582 228.466 17.8791ZM61.044 20.2468C60.5215 20.2885 60.1035 20.4033 59.5391 20.664C59.0479 20.8935 58.6299 21.1751 58.3895 21.4463C58.1805 21.6863 57.8565 22.2495 57.6684 22.698C57.4281 23.2821 57.2922 23.835 57.2086 24.5651C57.1145 25.337 57.1145 25.8898 57.1981 26.6512C57.2817 27.4127 57.4072 27.9238 57.658 28.5287C57.867 29.0398 58.1701 29.5509 58.4313 29.8221C58.6613 30.0725 59.0375 30.3854 59.2674 30.521C59.4973 30.6462 59.9676 30.8339 60.3125 30.9278C60.6574 31.0112 61.2322 31.0947 61.5979 31.0947C61.9533 31.0947 62.4967 31.0425 62.7998 30.9695C63.1028 30.9069 63.6045 30.7087 63.918 30.5314C64.2315 30.3541 64.6496 30.0516 64.8377 29.8639C65.0258 29.6761 65.3393 29.1859 65.5274 28.7686C65.726 28.3514 65.935 27.7256 65.9977 27.3814C66.0604 27.0372 66.1127 26.2236 66.1127 25.556C66.1127 24.8989 66.05 24.0749 65.9664 23.7306C65.8932 23.3864 65.6737 22.7815 65.4647 22.3747C65.2453 21.947 64.9108 21.4776 64.6287 21.2273C64.3778 20.9978 63.8867 20.7058 63.5418 20.5702C63.2074 20.4346 62.6639 20.299 62.3504 20.2573C62.0369 20.2155 61.4516 20.2155 61.044 20.2468ZM77.3996 20.2468C77.086 20.2885 76.5426 20.4241 76.1977 20.5597C75.7797 20.7266 75.4035 20.9665 75.0377 21.3316C74.745 21.6237 74.4106 22.0409 74.2957 22.2704C74.1703 22.4998 74.003 22.9692 73.9194 23.3134C73.8254 23.6576 73.7209 24.4086 73.6895 24.9823C73.6477 25.5664 73.6686 26.4218 73.7313 26.912C73.794 27.4022 73.9403 28.0802 74.0658 28.4244C74.1807 28.7686 74.4733 29.311 74.7137 29.624C75.0481 30.0516 75.3408 30.2811 75.9364 30.594C76.6053 30.9382 76.8561 31.0008 77.6086 31.0634C78.1625 31.0947 78.7582 31.0738 79.1762 30.9904C79.5524 30.9173 80.0645 30.74 80.3258 30.594C80.5871 30.448 80.8901 30.2498 80.9946 30.1559C81.1096 30.0725 81.3813 29.7595 81.6008 29.4675C81.8516 29.165 82.1024 28.6748 82.2174 28.268C82.3323 27.9029 82.4682 27.1728 82.5309 26.6512C82.6041 26.0254 82.6041 25.3787 82.5309 24.6694C82.4682 24.0957 82.3532 23.3969 82.2696 23.1048C82.186 22.8232 81.9143 22.2912 81.6635 21.9157C81.4231 21.5507 81.026 21.123 80.7961 20.9665C80.5662 20.8101 80.0959 20.591 79.751 20.4763C79.4061 20.3511 78.8627 20.2364 78.5491 20.2155C78.2356 20.1947 77.7131 20.2051 77.3996 20.2468ZM116.329 20.4972C115.932 20.6223 115.399 20.8309 115.158 20.9561C114.908 21.0813 114.531 21.3525 114.312 21.5715C114.082 21.801 113.821 22.2182 113.674 22.5833C113.538 22.9588 113.444 23.4282 113.444 23.7306C113.455 24.0227 113.465 24.273 113.486 24.2835C113.497 24.3043 114.615 24.1687 115.963 23.9914C117.311 23.8037 119.266 23.5533 120.3 23.4073C121.471 23.2508 122.213 23.1152 122.254 23.0318C122.286 22.9588 122.275 22.7085 122.234 22.479C122.181 22.2495 122.004 21.874 121.836 21.6445C121.669 21.4151 121.303 21.0917 121.021 20.9144C120.739 20.7475 120.248 20.5285 119.934 20.4241C119.516 20.2885 119.046 20.2364 118.21 20.2468C117.311 20.2573 116.904 20.3094 116.329 20.4972ZM186.402 20.4346C186.088 20.5389 185.639 20.7162 185.409 20.8414C185.179 20.9561 184.813 21.2482 184.604 21.4776C184.385 21.7175 184.113 22.1348 183.998 22.406C183.872 22.6772 183.684 23.2821 183.569 23.7306C183.381 24.4504 183.36 24.7841 183.402 26.0254C183.444 27.2145 183.507 27.6317 183.716 28.2158C183.852 28.6226 184.081 29.1337 184.228 29.3632C184.374 29.5927 184.667 29.9369 184.897 30.1246C185.127 30.3124 185.565 30.5836 185.879 30.74C186.37 30.9904 186.621 31.0321 187.551 31.0738C188.345 31.1051 188.805 31.0738 189.223 30.9486C189.537 30.8652 190.07 30.6149 190.404 30.3958C190.812 30.1142 191.136 29.7908 191.439 29.311C191.679 28.946 191.972 28.3306 192.087 27.9551C192.233 27.4335 192.285 26.9328 192.285 25.7646C192.296 24.6694 192.244 24.054 192.108 23.522C192.014 23.1257 191.815 22.5833 191.658 22.3225C191.512 22.0722 191.272 21.7175 191.125 21.5402C190.989 21.3733 190.697 21.123 190.488 20.977C190.279 20.8414 189.808 20.6119 189.432 20.4867C188.931 20.3094 188.533 20.2468 187.865 20.2468C187.311 20.2468 186.767 20.3198 186.402 20.4346ZM210.177 20.5076C209.78 20.6536 209.331 20.8414 209.184 20.9352C209.038 21.0291 208.766 21.269 208.578 21.4776C208.38 21.6862 208.139 22.02 208.045 22.2182C207.941 22.4268 207.742 22.9171 207.606 23.3134C207.387 23.9601 207.355 24.2418 207.355 25.6603C207.355 27.1832 207.376 27.3396 207.669 28.1637C207.836 28.6539 208.118 29.2693 208.306 29.5196C208.484 29.7804 208.892 30.1663 209.195 30.375C209.508 30.594 210.041 30.8339 210.386 30.9278C210.731 31.0217 211.389 31.0947 211.849 31.0842C212.309 31.0842 212.947 31.0112 213.26 30.9278C213.574 30.8339 214.117 30.5627 214.451 30.3228C214.89 30.0203 215.183 29.697 215.476 29.2067C215.695 28.8417 215.925 28.3723 215.988 28.1637C216.04 27.9655 216.134 27.4752 216.207 27.0684C216.27 26.6512 216.291 25.8376 216.259 25.1388C216.228 24.4817 216.124 23.6889 216.03 23.3656C215.935 23.0527 215.747 22.5833 215.612 22.3225C215.486 22.0722 215.183 21.655 214.943 21.4151C214.713 21.1751 214.337 20.8831 214.128 20.7788C213.908 20.664 213.469 20.4972 213.156 20.4137C212.832 20.3094 212.225 20.2364 211.745 20.2468C211.128 20.2468 210.721 20.3094 210.177 20.5076ZM242.209 20.4241C241.895 20.5285 241.425 20.7371 241.164 20.8831C240.902 21.0291 240.537 21.3525 240.328 21.6132C240.129 21.8636 239.837 22.3955 239.669 22.7919C239.513 23.1987 239.324 23.8558 239.272 24.2522C239.209 24.659 239.178 25.5247 239.209 26.1818C239.251 27.1102 239.324 27.5587 239.544 28.1637C239.69 28.6017 239.931 29.1337 240.066 29.3632C240.202 29.5927 240.516 29.9473 240.767 30.1455C241.017 30.3437 241.477 30.6253 241.791 30.7609C242.261 30.9695 242.585 31.0321 243.463 31.0634C244.372 31.1051 244.675 31.0738 245.24 30.8861C245.616 30.7713 246.149 30.4897 246.421 30.2811C246.692 30.062 247.037 29.7178 247.183 29.4988C247.319 29.2797 247.549 28.8417 247.685 28.5079C247.821 28.1741 247.988 27.6213 248.051 27.2771C248.114 26.9328 248.166 26.1818 248.166 25.6082C248.166 25.0345 248.103 24.2626 248.019 23.8871C247.946 23.522 247.706 22.8545 247.497 22.406C247.236 21.8323 246.995 21.4985 246.682 21.2377C246.431 21.0396 245.929 20.7475 245.553 20.591C244.999 20.3616 244.686 20.299 243.829 20.2781C243.034 20.2468 242.648 20.2885 242.209 20.4241Z" fill="#5E5E5E"/>
</svg>
