<svg width="20" height="19" viewBox="0 0 20 19" fill="none" xmlns="http://www.w3.org/2000/svg">
<path d="M1.50254 0.695238C1.37754 0.742113 1.14317 0.906176 1.06114 1.00383C1.03379 1.03508 0.967388 1.14836 0.916607 1.25774C0.740825 1.61711 0.740825 1.62883 1.62364 5.15618C2.06504 6.9218 2.45176 8.40618 2.48301 8.45305C2.51426 8.49993 2.57286 8.55852 2.61583 8.58196C2.65879 8.6054 4.19004 8.78899 6.02208 8.99212C7.85411 9.19524 9.43223 9.37102 9.52598 9.38665C9.77598 9.4218 9.95958 9.6093 9.95958 9.83196C9.95958 10.0546 9.77598 10.2421 9.52598 10.2773C9.43223 10.2929 7.85411 10.4687 6.01817 10.6718C2.6002 11.0507 2.55723 11.0585 2.46348 11.2343C2.44004 11.2734 2.06114 12.7499 1.61973 14.5156C0.744732 18.0234 0.740825 18.0429 0.9127 18.4062C1.02989 18.6601 1.17833 18.8046 1.44004 18.9257C1.61583 19.0077 1.69004 19.0195 1.90879 19.0038C2.15879 18.9843 2.44004 18.8515 10.3658 14.9843C19.276 10.6366 18.8307 10.8749 19.0494 10.4257C19.1471 10.2304 19.1588 10.1601 19.1588 9.83196C19.1588 9.50383 19.1471 9.43352 19.0494 9.23821C18.8307 8.78899 19.276 9.02727 10.3658 4.67961L2.16661 0.679613L1.89317 0.667894C1.74473 0.660082 1.56895 0.671801 1.50254 0.695238Z" fill="black"/>
</svg>
