<svg width="248" height="26" viewBox="0 0 248 26" fill="none" xmlns="http://www.w3.org/2000/svg">
<g clip-path="url(#clip0_3_456)">
<path d="M59.8731 25.0634H80.1933C82.9192 24.4754 85.0588 22.5517 85.7422 20.0746H54.4023C55.0726 22.5328 57.1774 24.4522 59.8731 25.0634Z" fill="#5E5E5E"/>
<path d="M59.8731 15.0145H80.1933C82.9192 14.4265 85.0588 12.5028 85.7422 10.0256H54.4023C55.0726 12.4839 57.1774 14.4033 59.8731 15.0145Z" fill="#5E5E5E"/>
<path d="M59.8731 5.17927H80.1933C82.9192 4.59127 85.0588 2.66757 85.7422 0.19043H54.4023C55.0726 2.64868 57.1774 4.56807 59.8731 5.17927Z" fill="#5E5E5E"/>
<path d="M221.242 5.17927H241.613C244.316 4.56807 246.426 2.64868 247.098 0.19043H215.758C216.43 2.64868 218.54 4.56807 221.242 5.17927Z" fill="#5E5E5E"/>
<path d="M215.758 25.0634H221.284V15.0858H241.572V25.0634H247.098V10.0969H215.758V25.0634Z" fill="#5E5E5E"/>
<path d="M132.702 5.108C135.516 4.39531 137.861 2.39977 138.486 0.19043H108.709V14.9431H133.015V20.0745H113.945C111.348 20.9753 109.915 22.3592 108.709 25.0634H138.33V10.0968H113.945V5.108L132.702 5.108Z" fill="#5E5E5E"/>
<path d="M161.453 0.19043V25.0634H187.738C190.267 24.2547 192.159 22.4404 192.793 20.2171H167.266V0.19043H161.453Z" fill="#5E5E5E"/>
<path d="M0.0976562 0.261698C0.72263 2.71193 2.63477 4.55393 5.08355 5.17927L12.7761 5.17927L13.2747 5.39308L13.2748 25.0634H18.1181L18.1181 5.39308L18.6167 5.17927H26.4517C28.8926 4.54018 30.7989 2.6328 31.4376 0.19043H0.0976562V0.261698Z" fill="#5E5E5E"/>
</g>
<defs>
<clipPath id="clip0_3_456">
<rect width="247" height="24.8729" fill="white" transform="translate(0.0976562 0.19043)"/>
</clipPath>
</defs>
</svg>
