<svg width="127" height="45" viewBox="0 0 127 45" fill="none" xmlns="http://www.w3.org/2000/svg">
<g clip-path="url(#clip0_3_467)">
<path d="M7.44451 32.0511C7.97697 33.4725 8.71416 34.6878 9.65619 35.6971C10.5982 36.7065 11.7143 37.479 13.0043 38.0146C14.2945 38.5502 15.6972 38.8179 17.2126 38.8179C18.6871 38.8179 20.0693 38.5398 21.3595 37.9836C22.6496 37.4273 23.7759 36.6446 24.7383 35.6353C25.7007 34.6259 26.4482 33.4209 26.9807 32.0202C27.5132 30.6194 27.7793 29.054 27.7793 27.3235V0.626831H34.2299V43.8853H27.8408V39.8684C26.4073 41.3926 24.7178 42.5668 22.7724 43.391C20.8269 44.2148 18.728 44.6268 16.4754 44.6268C14.1818 44.6268 12.0419 44.2251 10.0554 43.4217C8.06914 42.6184 6.34887 41.4752 4.89503 39.992C3.4412 38.5088 2.2943 36.7272 1.45476 34.6465C0.615083 32.566 0.195312 30.2487 0.195312 27.6942V0.626831H6.64589V27.3235C6.64589 29.054 6.91205 30.6296 7.44451 32.0511Z" fill="#5E5E5E"/>
<path d="M45.3493 0.626831V16.3852C46.7828 14.9433 48.4416 13.8002 50.3255 12.9555C52.2095 12.1109 54.2574 11.6886 56.4689 11.6886C58.7626 11.6886 60.9125 12.1211 62.9195 12.9863C64.9263 13.8514 66.6668 15.0256 68.1413 16.5088C69.6158 17.9921 70.7831 19.7429 71.6432 21.7616C72.5033 23.7804 72.9332 25.9228 72.9332 28.1887C72.9332 30.4545 72.5033 32.5865 71.6432 34.5846C70.7831 36.5828 69.6158 38.3235 68.1413 39.8064C66.6668 41.2897 64.9263 42.4639 62.9195 43.329C60.9125 44.1942 58.7624 44.6267 56.4689 44.6267C54.2572 44.6267 52.1993 44.2044 50.2948 43.3598C48.3904 42.5153 46.7213 41.372 45.2879 39.9301V43.8851H39.1445V0.626831H45.3493ZM46.0558 32.4527C46.6086 33.7711 47.3767 34.9247 48.3596 35.9134C49.3426 36.9022 50.4894 37.6851 51.7999 38.2618C53.1106 38.8386 54.5235 39.127 56.0389 39.127C57.5134 39.127 58.9058 38.8386 60.2164 38.2618C61.527 37.6851 62.6634 36.9023 63.6261 35.9134C64.5885 34.9248 65.3564 33.7711 65.9298 32.4527C66.5032 31.1344 66.7899 29.7131 66.7899 28.1887C66.7899 26.6643 66.5032 25.2326 65.9298 23.8937C65.3564 22.5547 64.5885 21.3909 63.6261 20.4021C62.6635 19.4135 61.5271 18.6409 60.2164 18.0848C58.9057 17.5287 57.5133 17.2504 56.0389 17.2504C54.5646 17.2504 53.172 17.5285 51.8615 18.0848C50.5509 18.641 49.4042 19.4135 48.4211 20.4021C47.4383 21.3909 46.66 22.5547 46.0867 23.8937C45.5133 25.2326 45.2266 26.6643 45.2266 28.1887C45.2264 29.7131 45.5029 31.1344 46.0558 32.4527Z" fill="#5E5E5E"/>
<path d="M76.4335 21.8236C77.2525 19.8461 78.3791 18.1055 79.8124 16.6017C81.2457 15.098 82.9456 13.9136 84.9115 13.0484C86.8774 12.1832 89.0071 11.7507 91.3006 11.7507C93.5532 11.7507 95.642 12.1627 97.567 12.9866C99.4918 13.8106 101.151 14.9539 102.543 16.4165C103.936 17.8789 105.021 19.6094 105.799 21.6074C106.577 23.6056 106.966 25.7788 106.966 28.1272V30.1666H81.4712C81.676 31.4437 82.0856 32.6282 82.6999 33.7198C83.3143 34.8115 84.0821 35.7591 85.0036 36.5625C85.9251 37.3659 86.9695 37.9943 88.1368 38.4473C89.3041 38.9005 90.5429 39.1272 91.8536 39.1272C95.5807 39.1272 98.591 37.5821 100.885 34.4922L105.369 37.8292C103.813 39.9304 101.888 41.5784 99.5945 42.7731C97.3008 43.9678 94.7206 44.5652 91.8537 44.5652C89.5192 44.5652 87.3383 44.1531 85.311 43.3292C83.2836 42.5053 81.5226 41.3517 80.0277 39.8684C78.5328 38.3852 77.3553 36.6446 76.4953 34.6466C75.6352 32.6485 75.2051 30.4752 75.2051 28.1269C75.2048 25.9023 75.6145 23.8011 76.4335 21.8236ZM85.0651 19.3825C83.3244 20.8451 82.1675 22.7917 81.5941 25.2224H100.7C100.168 22.7917 99.0311 20.8451 97.2905 19.3825C95.5498 17.9201 93.5123 17.1888 91.1778 17.1888C88.8433 17.1888 86.8057 17.9201 85.0651 19.3825Z" fill="#5E5E5E"/>
<path d="M118.577 20.0931C117.267 21.535 116.611 23.4919 116.611 25.9639V43.8854H110.406V12.3685H116.55V16.2617C117.328 14.9846 118.342 13.9752 119.591 13.2336C120.84 12.4919 122.324 12.1211 124.045 12.1211H126.195V17.9301H123.615C121.567 17.9302 119.888 18.6511 118.577 20.0931Z" fill="#5E5E5E"/>
</g>
<defs>
<clipPath id="clip0_3_467">
<rect width="126" height="44" fill="white" transform="translate(0.195312 0.626831)"/>
</clipPath>
</defs>
</svg>
