<svg width="24" height="24" viewBox="0 0 24 24" fill="none" xmlns="http://www.w3.org/2000/svg">
<g clip-path="url(#clip0_6939_85159)">
<path d="M12.0013 22C17.294 22 21.5846 17.5228 21.5846 12C21.5846 6.47715 17.294 2 12.0013 2C6.70857 2 2.41797 6.47715 2.41797 12C2.41797 17.5228 6.70857 22 12.0013 22Z" fill="#F0F0F0"/>
<path d="M4.40092 5.91211C3.64814 6.9341 3.08051 8.11203 2.75 9.39168H7.73551L4.40092 5.91211Z" fill="#0052B4"/>
<path d="M21.255 9.39164C20.9244 8.11203 20.3568 6.9341 19.604 5.91211L16.2695 9.39164H21.255Z" fill="#0052B4"/>
<path d="M2.75 14.6094C3.08055 15.889 3.64818 17.0669 4.40092 18.0889L7.73539 14.6094H2.75Z" fill="#0052B4"/>
<path d="M17.8385 4.06746C16.859 3.28195 15.7302 2.68965 14.5039 2.34473V7.54695L17.8385 4.06746Z" fill="#0052B4"/>
<path d="M6.16797 19.9326C7.14738 20.7181 8.27623 21.3104 9.50252 21.6553V16.4531L6.16797 19.9326Z" fill="#0052B4"/>
<path d="M9.50248 2.34473C8.27619 2.68965 7.14734 3.28195 6.16797 4.06742L9.50248 7.54691V2.34473Z" fill="#0052B4"/>
<path d="M14.5039 21.6553C15.7302 21.3104 16.859 20.7181 17.8384 19.9326L14.5039 16.4531V21.6553Z" fill="#0052B4"/>
<path d="M16.2695 14.6094L19.604 18.0889C20.3568 17.067 20.9244 15.889 21.255 14.6094H16.2695Z" fill="#0052B4"/>
<path d="M21.5035 10.6957H13.2514H13.2513V2.08465C12.8421 2.02906 12.425 2 12.0013 2C11.5776 2 11.1605 2.02906 10.7513 2.08465V10.6956V10.6956H2.49909C2.44582 11.1226 2.41797 11.5579 2.41797 12C2.41797 12.4421 2.44582 12.8774 2.49909 13.3043H10.7512H10.7513V21.9154C11.1605 21.9709 11.5776 22 12.0013 22C12.425 22 12.8421 21.971 13.2513 21.9154V13.3044V13.3044H21.5035C21.5568 12.8774 21.5846 12.4421 21.5846 12C21.5846 11.5579 21.5568 11.1226 21.5035 10.6957Z" fill="#D80027"/>
<path d="M14.5 14.6084L18.7764 19.0708C18.9731 18.8656 19.1607 18.6511 19.3397 18.4288L15.6785 14.6084H14.5V14.6084Z" fill="#D80027"/>
<path d="M9.50301 14.6084H9.50294L5.22656 19.0707C5.42317 19.2759 5.62873 19.4717 5.8418 19.6585L9.50301 15.838V14.6084Z" fill="#D80027"/>
<path d="M9.49989 9.39117V9.39109L5.22348 4.92871C5.02679 5.13387 4.83917 5.34836 4.66016 5.5707L8.3214 9.39113H9.49989V9.39117Z" fill="#D80027"/>
<path d="M14.5 9.39102L18.7765 4.92859C18.5798 4.72336 18.3743 4.52758 18.1612 4.34082L14.5 8.16126V9.39102Z" fill="#D80027"/>
</g>
<defs>
<clipPath id="clip0_6939_85159">
<rect width="19.1667" height="20" fill="white" transform="translate(2.41797 2)"/>
</clipPath>
</defs>
</svg>
