<svg width="40" height="40" viewBox="0 0 40 40" fill="none" xmlns="http://www.w3.org/2000/svg">
<path fill-rule="evenodd" clip-rule="evenodd" d="M35.9704 10.6216C35.5887 8.94828 34.4587 7.62828 33.022 7.17495C30.4237 6.36328 19.9987 6.36328 19.9987 6.36328C19.9987 6.36328 9.5787 6.36328 6.97536 7.17495C5.5437 7.62161 4.4137 8.94161 4.02703 10.6216C3.33203 13.6583 3.33203 19.9999 3.33203 19.9999C3.33203 19.9999 3.33203 26.3416 4.02703 29.3783C4.4087 31.0516 5.5387 32.3716 6.97536 32.8249C9.5787 33.6366 19.9987 33.6366 19.9987 33.6366C19.9987 33.6366 30.4237 33.6366 33.022 32.8249C34.4537 32.3783 35.5837 31.0583 35.9704 29.3783C36.6654 26.3416 36.6654 19.9999 36.6654 19.9999C36.6654 19.9999 36.6654 13.6583 35.9704 10.6216Z" stroke="white" stroke-width="1.5" stroke-linecap="round" stroke-linejoin="round"/>
<path fill-rule="evenodd" clip-rule="evenodd" d="M16.6719 25L25.3319 20L16.6719 15V25Z" stroke="white" stroke-width="1.5" stroke-linecap="round" stroke-linejoin="round"/>
</svg>
